<svg xmlns="http://www.w3.org/2000/svg" xmlns:xlink="http://www.w3.org/1999/xlink" xml:space="preserve" width="180mm" height="180mm" viewBox="-39 -28 180 180"><title>Pitch - icon</title><defs><filter id="e" width="1.122" height="1.441" x="-.061" y="-.221" style="color-interpolation-filters:sRGB"><feFlood flood-color="#000" flood-opacity=".647" result="flood"/><feGaussianBlur in="SourceGraphic" result="blur" stdDeviation="2"/><feOffset in="blur" result="offset"/><feComposite in="flood" in2="offset" operator="in" result="comp1"/><feComposite in="SourceGraphic" in2="comp1" result="comp2"/></filter><filter id="c" width="1.787" height="1.188" x="-.394" y="-.094" style="color-interpolation-filters:sRGB"><feFlood flood-color="#000" flood-opacity=".647" result="flood"/><feGaussianBlur in="SourceGraphic" result="blur" stdDeviation="2"/><feOffset in="blur" result="offset"/><feComposite in="flood" in2="offset" operator="in" result="comp1"/><feComposite in="SourceGraphic" in2="comp1" result="comp2"/></filter><filter id="b" width="1.134" height="1.11" x="-.067" y="-.055" style="color-interpolation-filters:sRGB"><feFlood flood-color="#000" flood-opacity=".647" result="flood"/><feGaussianBlur in="SourceGraphic" result="blur" stdDeviation="2"/><feOffset in="blur" result="offset"/><feComposite in="flood" in2="offset" operator="in" result="comp1"/><feComposite in="SourceGraphic" in2="comp1" result="comp2"/></filter><linearGradient id="a"><stop offset="0" style="stop-color:#fc3a78;stop-opacity:1"/></linearGradient><linearGradient xlink:href="#a" id="d" x1="74.183" x2="161.27" y1="73.406" y2="73.406" gradientUnits="userSpaceOnUse"/></defs><g transform="rotate(-.08 -50961.189 60768.692)scale(1.07253)"><path d="m103.598 70.346 70.299.38s3.838 33.964-2.435 36.043c-20.89 6.923-35.147 14.246-56.005 21.075v29.526l-6.806-.604.048-34.677s37.473-13.325 57.76-21.744V78.01H103.6z" style="stroke-width:.264583;fill-opacity:1;fill:#b6b6b6;display:inline;filter:url(#b)"/><g style="display:inline" transform="rotate(.08 -2.409 3442.068)"><rect width="5.164" height="35.014" x="79.838" y="75.16" rx="1.757" ry="12.745" style="display:inline;fill:#fc3a78;fill-opacity:1;stroke:none;stroke-width:.204625;stroke-dasharray:none;stroke-opacity:1"/><rect width="9.179" height="78.636" x="84.046" y="66.553" rx="1.148" ry="24.916" style="display:inline;fill:#fc3a78;fill-opacity:1;stroke:none;stroke-width:.36515;stroke-dasharray:none;stroke-opacity:1"/><rect width="7.325" height="31.393" x="92.077" y="75.16" rx="1.72" ry="12.732" style="display:inline;fill:#fc3a78;fill-opacity:1;stroke:none;stroke-width:.33871;stroke-dasharray:none;stroke-opacity:1"/><rect width="10.06" height="31.393" x="96.668" y="67.318" rx="2.89" ry="15.697" style="display:inline;fill:#fc3a78;fill-opacity:1;stroke:none;stroke-width:.396932;stroke-dasharray:none;stroke-opacity:1"/><rect width="8.664" height="31.393" x="104.89" y="75.16" rx=".869" ry="15.697" style="display:inline;fill:#fc3a78;fill-opacity:1;stroke:none;stroke-width:.368366;stroke-dasharray:none;stroke-opacity:1"/><rect width="10.194" height="31.393" x="112.215" y="65.214" rx="1.562" ry="13.688" style="display:inline;fill:#fc3a78;fill-opacity:1;stroke:none;stroke-width:.399573;stroke-dasharray:none;stroke-opacity:1"/><rect width="10.194" height="31.393" x="120.628" y="62.728" rx="2.71" ry="9.863" style="display:inline;fill:#fc3a78;fill-opacity:1;stroke:none;stroke-width:.399573;stroke-dasharray:none;stroke-opacity:1"/></g><path d="M107.874 138.64c-1.094.24-1.346 1.55-1.576 2.485-.522 2.768-.214 5.603-.3 8.4.012 11.774-.032 23.548.014 35.321.119 1.534.183 3.245 1.16 4.51.682.671 1.736.253 2.587.37 2.25-.035 4.513.065 6.757-.051 1.124-.617 1.26-2.072 1.482-3.209.321-2.866.1-5.759.166-8.636-.01-11.407.031-22.816-.012-34.222-.113-1.566-.17-3.311-1.161-4.607-.68-.675-1.736-.257-2.587-.373-2.177.007-4.356-.012-6.53.012" style="fill-opacity:1;fill:#c1e1e1;display:inline;filter:url(#c)"/><rect width="87.087" height="24.009" x="74.183" y="61.402" rx="6.628" ry="12.005" style="stroke:#dc3a78;fill-opacity:1;fill:url(#d);display:inline;filter:url(#e)"/></g></svg>
